<mxfile host="app.diagrams.net" agent="Mozilla/5.0 (Windows NT 10.0; Win64; x64) AppleWebKit/537.36 (KHTML, like Gecko) Chrome/140.0.0.0 Safari/537.36 Edg/140.0.0.0" version="28.2.1">
  <diagram name="ページ1" id="sK2qduj-h305asDX92Np">
    <mxGraphModel dx="751" dy="457" grid="0" gridSize="10" guides="1" tooltips="1" connect="1" arrows="1" fold="1" page="0" pageScale="1" pageWidth="827" pageHeight="1169" math="0" shadow="0">
      <root>
        <mxCell id="0" />
        <mxCell id="1" parent="0" />
        <mxCell id="s3VlWv3Hlvv5cXVWD9g--1" value="Actor" style="shape=umlActor;verticalLabelPosition=bottom;verticalAlign=top;html=1;" vertex="1" parent="1">
          <mxGeometry x="105" y="167" width="37" height="74" as="geometry" />
        </mxCell>
        <mxCell id="s3VlWv3Hlvv5cXVWD9g--6" value="" style="edgeStyle=none;curved=1;rounded=0;orthogonalLoop=1;jettySize=auto;html=1;fontSize=12;startSize=8;endSize=8;" edge="1" parent="1" source="s3VlWv3Hlvv5cXVWD9g--2" target="s3VlWv3Hlvv5cXVWD9g--5">
          <mxGeometry relative="1" as="geometry" />
        </mxCell>
        <mxCell id="s3VlWv3Hlvv5cXVWD9g--2" value="ログイン画面" style="shape=umlBoundary;whiteSpace=wrap;html=1;" vertex="1" parent="1">
          <mxGeometry x="297" y="164" width="100" height="80" as="geometry" />
        </mxCell>
        <mxCell id="s3VlWv3Hlvv5cXVWD9g--4" style="edgeStyle=none;curved=1;rounded=0;orthogonalLoop=1;jettySize=auto;html=1;exitX=0.5;exitY=0.5;exitDx=0;exitDy=0;exitPerimeter=0;entryX=0.026;entryY=0.486;entryDx=0;entryDy=0;entryPerimeter=0;fontSize=12;startSize=8;endSize=8;" edge="1" parent="1" source="s3VlWv3Hlvv5cXVWD9g--1" target="s3VlWv3Hlvv5cXVWD9g--2">
          <mxGeometry relative="1" as="geometry" />
        </mxCell>
        <mxCell id="s3VlWv3Hlvv5cXVWD9g--12" value="" style="edgeStyle=none;curved=1;rounded=0;orthogonalLoop=1;jettySize=auto;html=1;fontSize=12;startSize=8;endSize=8;entryX=0.957;entryY=0.324;entryDx=0;entryDy=0;entryPerimeter=0;" edge="1" parent="1" source="s3VlWv3Hlvv5cXVWD9g--5" target="s3VlWv3Hlvv5cXVWD9g--7">
          <mxGeometry relative="1" as="geometry">
            <mxPoint x="513" y="374" as="targetPoint" />
          </mxGeometry>
        </mxCell>
        <mxCell id="s3VlWv3Hlvv5cXVWD9g--14" value="" style="edgeStyle=none;curved=1;rounded=0;orthogonalLoop=1;jettySize=auto;html=1;fontSize=12;startSize=8;endSize=8;endArrow=none;endFill=0;" edge="1" parent="1" source="s3VlWv3Hlvv5cXVWD9g--5" target="s3VlWv3Hlvv5cXVWD9g--13">
          <mxGeometry relative="1" as="geometry" />
        </mxCell>
        <mxCell id="s3VlWv3Hlvv5cXVWD9g--5" value="訪問者情報一致確認" style="ellipse;shape=umlControl;whiteSpace=wrap;html=1;" vertex="1" parent="1">
          <mxGeometry x="478" y="164" width="70" height="80" as="geometry" />
        </mxCell>
        <mxCell id="s3VlWv3Hlvv5cXVWD9g--16" value="" style="edgeStyle=none;curved=1;rounded=0;orthogonalLoop=1;jettySize=auto;html=1;fontSize=12;startSize=8;endSize=8;exitX=-0.026;exitY=0.487;exitDx=0;exitDy=0;exitPerimeter=0;" edge="1" parent="1" source="s3VlWv3Hlvv5cXVWD9g--7" target="s3VlWv3Hlvv5cXVWD9g--1">
          <mxGeometry relative="1" as="geometry">
            <mxPoint x="187" y="318" as="targetPoint" />
          </mxGeometry>
        </mxCell>
        <mxCell id="s3VlWv3Hlvv5cXVWD9g--7" value="ログイン&lt;br&gt;完了画面" style="shape=umlBoundary;whiteSpace=wrap;html=1;" vertex="1" parent="1">
          <mxGeometry x="297" y="278" width="100" height="80" as="geometry" />
        </mxCell>
        <mxCell id="s3VlWv3Hlvv5cXVWD9g--8" value="ユーザID&lt;br&gt;パスワード入力" style="text;html=1;align=center;verticalAlign=middle;resizable=0;points=[];autosize=1;strokeColor=none;fillColor=none;fontSize=16;" vertex="1" parent="1">
          <mxGeometry x="148" y="146" width="130" height="50" as="geometry" />
        </mxCell>
        <mxCell id="s3VlWv3Hlvv5cXVWD9g--13" value="訪問者情報" style="ellipse;shape=umlEntity;whiteSpace=wrap;html=1;" vertex="1" parent="1">
          <mxGeometry x="644" y="167" width="80" height="80" as="geometry" />
        </mxCell>
      </root>
    </mxGraphModel>
  </diagram>
</mxfile>
